# xmcd
#
# Track frame offsets: 
#        150
#        14750
#        23554
#        36982
#        43624
#        55745
#        61887
#        73909
#        88314
#        102847
#        108743
#        129871
#        142509
#        157827
#        161775
#        173661
#        179529
#        200819
#        204306
#        218318
#        236608
#        242924
#        258258
#
# Disc length: 3753 seconds
#
# Revision: 0
# Processed by: cddbd v1.5.2PL0 Copyright (c) Steve Scherf et al.
# Submitted via: ExactAudioCopy v0.99pb5
#
DISCID=3e0ea717
DTITLE=Sherwin Linton and Friends - Hillbilly Heaven
DYEAR=2011
DGENRE=Country
TTITLE0=Neon Moon with Jim Glaser and Cowboy Joe Babcock
TTITLE1=Dialog - Jim Glaser and Cowboy Joe Babcock
TTITLE2=Hank Williams Will Live Forever wth Dawn Sears
TTITLE3=Dialog - Dawn Sears
TTITLE4=Drifting Apart with Dawn Sears
TTITLE5=Dialog - Williams and Ree
TTITLE6=Just Good Old Boys with Williams and Ree
TTITLE7=Dialog - David Frizzell
TTITLE8=Mom and Dads Waltz with David Frizzell
TTITLE9=Dialog - Roy Harper
TTITLE10=Jimmie Rodgers Memories and Me with Roy Harper
TTITLE11=Dialog - Tommy Cash
TTITLE12=I Still Miss Someone with Tommy Cash
TTITLE13=Dialog - Tommy Cash and JoAnne Cash Yates
TTITLE14=I Was There When It Happened with Tommy Cash and JoAnne Cash Ya
TTITLE14=tes
TTITLE15=Dialog - George Hamilton IV
TTITLE16=Forever Young with George Hamilton IV
TTITLE17=Dialog - Cerrito
TTITLE18=Spanish Guitars with Cerrito
TTITLE19=As Long As I Live with Pam Linton
TTITLE20=Dialog - Brittany Allyn and Pam Linton
TTITLE21=I Would Be In Love Anyway wiht Brittany Allyn
TTITLE22=I Dreamed Of A Hillbilly Heaven
EXTD=
EXTT0=
EXTT1=
EXTT2=
EXTT3=
EXTT4=
EXTT5=
EXTT6=
EXTT7=
EXTT8=
EXTT9=
EXTT10=
EXTT11=
EXTT12=
EXTT13=
EXTT14=
EXTT15=
EXTT16=
EXTT17=
EXTT18=
EXTT19=
EXTT20=
EXTT21=
EXTT22=
PLAYORDER=
